<?xml version="1.0" standalone="no"?><!DOCTYPE svg PUBLIC "-//W3C//DTD SVG 1.1//EN" "http://www.w3.org/Graphics/SVG/1.1/DTD/svg11.dtd"><svg t="1591960047687" class="icon" viewBox="0 0 1024 1024" version="1.1" xmlns="http://www.w3.org/2000/svg" p-id="949" xmlns:xlink="http://www.w3.org/1999/xlink" width="200" height="200"><defs><style type="text/css"></style></defs><path d="M668.735 532.898h-313.47c-11.494 0-20.898-9.404-20.898-20.898s9.404-20.898 20.898-20.898h313.47c11.494 0 20.898 9.404 20.898 20.898s-9.404 20.898-20.898 20.898z" p-id="950"></path><path d="M512 689.633c-11.494 0-20.898-9.404-20.898-20.898v-313.47c0-11.494 9.404-20.898 20.898-20.898s20.898 9.404 20.898 20.898v313.47c0 11.494-9.404 20.898-20.898 20.898z" p-id="951"></path><path d="M512 929.96C281.6 929.96 94.04 742.4 94.04 512S281.6 94.04 512 94.04 929.96 281.6 929.96 512 742.4 929.96 512 929.96z m0-794.123c-207.412 0-376.163 168.75-376.163 376.163S304.587 888.163 512 888.163 888.163 719.413 888.163 512 719.413 135.837 512 135.837z" p-id="952"></path></svg>